<?xml version="1.0" standalone="no"?>
<!DOCTYPE svg PUBLIC "-//W3C//DTD SVG 20010904//EN"
 "http://www.w3.org/TR/2001/REC-SVG-20010904/DTD/svg10.dtd">
<svg version="1.0" xmlns="http://www.w3.org/2000/svg"
 width="2500.000000pt" height="1228.000000pt" viewBox="0 0 2500.000000 1228.000000"
 preserveAspectRatio="xMidYMid meet">

<g transform="translate(0.000000,1228.000000) scale(0.100000,-0.100000)"
fill="#000000" stroke="none">
<path d="M0 6140 l0 -6140 12500 0 12500 0 0 6140 0 6140 -12500 0 -12500 0 0
-6140z m7130 5896 c291 -88 502 -313 605 -644 58 -189 85 -317 105 -494 13
-124 13 -484 0 -659 -19 -245 -86 -666 -147 -922 -14 -59 -23 -110 -21 -113 3
-2 79 -15 169 -29 611 -90 1051 -265 1304 -520 173 -173 255 -361 255 -584 0
-247 -156 -556 -423 -838 -149 -158 -391 -356 -611 -502 -118 -78 -407 -252
-462 -279 -28 -13 -34 -20 -29 -37 45 -144 35 -412 -22 -590 -60 -187 -207
-383 -388 -517 -92 -69 -304 -176 -420 -212 -239 -76 -445 -101 -827 -101
-184 1 -312 5 -317 10 -7 7 19 55 71 136 l82 126 250 6 c282 6 412 23 621 83
127 37 263 102 371 179 133 95 243 242 291 390 47 147 43 374 -12 547 -58 183
-136 341 -261 528 -75 113 -254 341 -272 348 -4 1 -14 -17 -23 -40 -68 -176
-247 -559 -446 -950 l-130 -257 51 20 c301 118 636 258 791 331 105 49 194 90
199 91 9 2 49 -117 67 -202 9 -43 8 -56 -3 -66 -7 -7 -80 -45 -163 -83 -663
-308 -1563 -610 -2167 -728 -48 -9 -85 -20 -82 -25 13 -22 426 -119 504 -119
25 0 34 8 65 63 49 87 86 137 115 159 19 14 351 118 376 118 2 0 -26 -45 -61
-99 -35 -55 -92 -145 -125 -201 -105 -176 -436 -666 -598 -885 -335 -454 -597
-761 -941 -1106 -589 -589 -1064 -913 -1506 -1027 -321 -82 -545 -68 -765 51
-153 82 -243 169 -328 318 -157 275 -219 546 -229 1000 -6 272 4 451 43 744
21 164 67 442 92 555 l8 35 130 -4 c71 -2 132 -5 135 -7 4 -2 -2 -48 -12 -101
-91 -485 -119 -711 -126 -1038 -9 -394 27 -660 119 -895 106 -269 332 -440
581 -440 349 0 809 238 1327 684 314 271 781 774 1067 1150 293 384 486 654
477 667 -2 4 -28 10 -57 14 -139 19 -725 185 -927 263 -144 55 -565 247 -704
320 -397 209 -713 417 -1079 710 -65 52 -121 102 -126 111 -6 11 9 56 50 146
56 127 69 142 94 111 45 -56 289 -256 482 -394 332 -238 648 -418 1073 -612
192 -87 276 -120 311 -120 42 0 466 96 794 180 411 105 632 171 664 198 24 20
157 258 316 567 108 210 284 584 394 840 28 66 56 128 62 138 13 24 1 40 -97
127 -253 228 -635 502 -954 686 -303 174 -626 324 -981 457 -267 101 -442 150
-749 212 -91 18 -177 36 -191 40 -25 6 -31 -1 -111 -127 -47 -73 -90 -143 -96
-155 -14 -25 -47 -31 313 62 276 72 311 73 485 21 236 -71 311 -97 307 -109
-4 -13 -92 -36 -312 -82 -652 -136 -1419 -382 -2044 -655 -249 -108 -451 -207
-451 -221 0 -21 144 -290 206 -384 76 -117 283 -390 290 -382 1 1 16 36 33 77
120 284 492 1044 530 1081 9 9 61 33 116 52 55 19 135 49 178 65 42 17 77 27
77 23 0 -3 -46 -90 -101 -191 -275 -501 -632 -1280 -809 -1765 -10 -27 -30
-79 -43 -115 -76 -198 -272 -819 -262 -829 4 -3 205 -6 448 -5 461 0 675 12
1032 54 94 12 204 23 246 27 l77 6 226 -99 c124 -55 224 -103 223 -109 -4 -11
-28 -15 -277 -45 -91 -11 -253 -32 -360 -45 -458 -59 -637 -69 -1165 -69 -481
0 -575 4 -831 38 -466 62 -808 150 -1046 270 -195 98 -267 146 -374 251 -157
154 -224 273 -260 461 -36 191 16 417 143 624 200 324 497 603 985 924 158
103 309 195 331 199 9 2 60 -164 72 -232 l6 -38 -123 -74 c-600 -357 -1025
-780 -1119 -1114 -29 -102 -32 -238 -6 -310 38 -110 148 -240 272 -325 96 -65
271 -151 391 -193 158 -55 615 -152 794 -169 l35 -3 44 145 c105 351 221 688
337 988 65 166 72 133 -66 296 -208 247 -308 394 -415 610 -75 152 -115 260
-163 436 -23 86 -26 112 -26 285 0 179 1 195 27 280 144 476 529 761 1177 871
146 25 611 30 810 10 356 -37 612 -94 1105 -242 99 -30 198 -57 220 -60 23 -3
90 3 155 14 264 47 714 105 950 122 80 6 199 15 265 21 177 14 757 22 935 12
85 -5 156 -9 157 -8 10 5 112 529 138 710 51 361 62 777 25 1024 -46 317 -127
522 -263 667 -115 123 -245 174 -444 174 -475 0 -1111 -416 -1848 -1210 -303
-326 -553 -637 -870 -1083 l-98 -138 -51 6 c-87 11 -230 35 -235 41 -22 22
557 801 833 1119 748 862 1423 1366 2016 1506 207 49 357 48 530 -5z m-2228
-4154 c248 -74 444 -286 513 -553 18 -67 20 -254 4 -331 -6 -29 -35 -105 -66
-168 -49 -101 -65 -124 -137 -195 -90 -88 -189 -150 -308 -193 -95 -34 -270
-42 -375 -18 -287 65 -497 263 -579 546 -14 49 -19 96 -18 190 0 112 3 136 32
225 78 248 277 437 532 505 99 27 300 22 402 -8z m12709 -262 l129 0 0 -365 0
-365 373 0 372 0 -3 365 -3 365 198 -2 198 -3 -3 -895 c-2 -492 -3 -901 -2
-908 0 -10 -42 -12 -192 -10 l-193 3 -3 373 -2 372 -370 0 -370 0 0 -375 0
-375 -192 2 -193 3 -3 907 -2 907 22 4 c13 3 43 3 67 1 24 -2 102 -4 172 -4z
m3197 -5 c10 -4 12 -190 12 -904 -1 -803 -2 -900 -16 -905 -9 -3 -93 -6 -189
-6 l-172 0 -7 31 c-3 17 -6 270 -6 561 0 493 -1 529 -17 517 -14 -12 -456
-559 -673 -834 -36 -45 -100 -126 -143 -179 l-78 -97 -112 3 -112 3 0 905 0
905 193 3 192 2 0 -566 0 -567 119 149 c66 82 141 176 167 209 27 33 109 137
183 230 75 94 143 179 152 190 98 117 134 161 186 230 76 100 100 123 138 127
35 4 164 -1 183 -7z m2636 -25 c36 -55 329 -531 401 -652 32 -54 60 -98 64
-97 3 0 59 89 124 197 148 248 341 560 353 572 10 10 444 19 444 8 0 -3 -35
-62 -78 -130 -104 -164 -324 -525 -827 -1358 -98 -162 -183 -300 -189 -306 -7
-8 -86 -14 -223 -18 -183 -6 -213 -5 -213 8 0 17 44 95 130 231 108 171 231
379 237 403 3 13 0 35 -6 49 -16 36 -614 1020 -654 1076 -11 17 -16 32 -10 38
4 4 94 10 198 12 105 1 197 3 206 5 9 1 28 -15 43 -38z m-782 -775 c2 -443 3
-851 3 -907 l0 -103 -170 -3 c-93 -1 -180 0 -192 3 -23 5 -23 6 -23 219 l0
214 -51 7 c-60 8 -246 -2 -304 -16 -57 -15 -163 -128 -270 -288 -48 -72 -90
-131 -94 -131 -3 0 -96 -3 -207 -7 -144 -4 -203 -3 -208 5 -15 25 222 361 334
474 l87 86 -26 12 c-231 103 -370 309 -373 555 -4 292 179 534 478 634 125 42
208 48 637 50 l377 1 2 -805z m-15675 -2618 c106 -133 240 -303 298 -377 142
-181 495 -626 740 -934 110 -138 253 -319 318 -401 65 -83 122 -150 127 -150
4 0 38 41 76 90 37 50 180 232 318 405 260 328 342 431 590 746 82 104 215
272 296 374 80 102 194 246 252 320 58 74 115 143 125 153 18 16 39 17 199 15
l179 -3 3 -2083 2 -2082 -325 0 -325 0 2 1475 c2 1071 0 1471 -8 1462 -14 -15
-462 -575 -574 -717 -184 -233 -274 -347 -522 -658 -142 -177 -264 -331 -270
-342 -7 -11 -16 -20 -19 -20 -6 0 -267 325 -668 830 -85 107 -171 215 -191
240 -20 25 -115 144 -210 265 -96 121 -209 262 -252 313 l-78 93 -2 -53 c-2
-29 -3 -690 -3 -1468 l0 -1415 -322 -3 -321 -2 -6 27 c-7 31 -5 4124 1 4136 2
4 88 7 191 7 l187 0 192 -243z m4691 -1216 c-3 -1229 -1 -1458 11 -1448 7 6
108 137 224 292 115 154 222 296 237 315 15 19 80 107 145 195 117 158 159
214 366 490 58 77 233 311 389 520 156 209 310 416 343 460 332 441 448 593
466 613 22 22 26 22 204 20 l182 -3 3 -2083 2 -2082 -331 0 -330 0 7 1460 c4
803 5 1460 1 1460 -3 0 -22 -24 -43 -52 -21 -29 -124 -168 -229 -308 -105
-140 -220 -293 -255 -340 -34 -47 -88 -119 -119 -160 -190 -251 -528 -703
-868 -1155 -214 -286 -454 -607 -534 -712 l-144 -193 -186 0 c-161 0 -188 2
-193 16 -8 20 -8 4102 0 4132 l6 22 324 0 324 0 -2 -1459z m6272 1084 l5 -369
72 91 c187 234 474 404 807 480 101 23 437 23 561 0 332 -62 630 -216 867
-450 125 -123 209 -241 293 -412 145 -294 197 -521 196 -850 0 -316 -55 -550
-192 -823 -237 -473 -665 -781 -1189 -856 -171 -24 -278 -29 -402 -16 -226 22
-438 91 -614 200 -123 75 -113 40 -114 385 0 165 -1 308 0 318 0 28 25 20 87
-31 158 -131 281 -192 488 -243 236 -58 556 -6 776 127 286 173 462 450 515
814 57 396 -135 840 -459 1059 -81 55 -250 130 -354 158 -85 22 -118 26 -253
26 -177 0 -254 -14 -394 -70 -159 -63 -320 -171 -416 -280 -100 -114 -192
-292 -243 -473 -22 -74 -22 -85 -27 -1325 l-5 -1250 -327 -3 -326 -2 -6 112
c-3 62 -3 328 2 591 4 262 6 477 6 477 -1 0 -20 -25 -43 -55 -75 -99 -164
-187 -271 -267 -274 -205 -609 -298 -968 -268 -372 30 -654 137 -920 349 -262
209 -457 518 -547 869 -135 527 -48 1081 236 1506 218 327 564 565 961 661
265 64 595 57 819 -18 177 -60 423 -198 447 -252 13 -27 18 -598 6 -629 -5
-13 -18 -5 -64 38 -77 71 -178 137 -292 191 -302 142 -615 136 -934 -20 -338
-165 -543 -477 -585 -893 -34 -328 93 -677 328 -903 214 -206 544 -320 838
-289 227 25 401 91 569 217 192 144 330 364 387 618 23 100 23 105 26 1118 l4
1017 322 -2 322 -3 5 -370z m3705 -815 c0 -652 2 -1311 3 -1465 l2 -280 38 54
c51 74 1120 1507 1299 1741 28 36 224 297 436 580 212 283 395 525 406 538 19
22 23 22 203 20 l183 -3 3 -1990 c2 -1094 0 -2032 -3 -2082 l-7 -93 -319 0
-319 0 -6 25 c-3 13 -4 669 -2 1458 l4 1433 -101 -130 c-111 -144 -1293 -1718
-1393 -1855 -35 -47 -94 -126 -132 -176 -38 -49 -144 -191 -236 -315 -92 -124
-203 -273 -247 -332 l-81 -108 -193 0 -193 0 0 2085 0 2085 328 -2 327 -3 0
-1185z"/>
<path d="M3060 9104 c-19 -2 -80 -9 -135 -15 -518 -56 -902 -288 -1011 -611
-45 -132 -60 -398 -23 -398 5 0 62 25 127 56 336 162 625 279 1121 454 51 19
101 41 111 49 33 28 279 445 269 455 -7 7 -411 16 -459 10z"/>
<path d="M6535 8953 c-304 -13 -783 -55 -1003 -88 -56 -8 -105 -15 -109 -15
-4 0 78 -43 183 -96 468 -238 853 -490 1187 -776 69 -59 132 -115 141 -124 9
-9 18 -15 20 -13 10 11 213 592 266 759 87 274 95 295 114 294 9 -1 58 -5 109
-9 124 -10 126 -10 133 -17 17 -18 -261 -846 -376 -1118 -18 -41 -34 -84 -36
-95 -3 -14 24 -53 97 -135 205 -234 340 -432 469 -689 44 -89 65 -121 76 -117
43 16 484 301 574 369 392 301 628 576 706 822 70 220 31 379 -134 548 -100
102 -192 162 -377 242 -265 116 -516 175 -955 225 -273 32 -764 47 -1085 33z"/>
<path d="M21868 7270 c-131 -13 -255 -92 -308 -196 -34 -67 -35 -205 -3 -276
45 -100 157 -178 283 -198 36 -5 149 -10 253 -10 l187 0 0 345 0 345 -167 -1
c-93 -1 -203 -5 -245 -9z"/>
</g>
</svg>
